/* XPM */
static char *_4c7949027fb4e02cdd5473946f80cfeXYhQoLvhWkHGUXp6[] = {
/* columns rows colors chars-per-pixel */
"10 10 2 1 ",
"  c #A8E61D",
". c #00BCD4",
/* pixels */
"..........",
"..........",
"..      ..",
"..      ..",
"..  ..  ..",
"..  ..  ..",
"..      ..",
"..      ..",
"..........",
".........."
};
